<svg xmlns="http://www.w3.org/2000/svg" width="68" height="28" viewBox="0 0 68 28"><path fill-rule="evenodd" clip-rule="evenodd" stroke="#231F20" stroke-width=".1" stroke-miterlimit="10" d="M66.9 20v-8.7c0-3.2-1.5-4.6-4.1-4.6-1.8 0-3.1.8-3.8 1.6l.4 1.4c.8-1.1 2-1.7 3.4-1.7 1.7 0 2.7 1 2.7 3.5v2h-1.7c-3.5 0-5.3 1.8-5.3 5.2 0 2.9 1.5 4.6 3.6 4.6 1.6 0 2.7-1 3.5-2.5.1 1.1.3 1.7.4 2.2h1.4c-.3-.6-.5-1.8-.5-3zm-1.4-1c-.6 1.7-1.6 3.1-3.1 3.1s-2.5-1.3-2.5-3.6c0-2.8 1.3-4 3.9-4h1.7V19zM54.8 21.8V7h-6.9s-.1 5.1-.5 9c-.3 3-.9 5.2-1.9 5.7h-.7V26H46l.2-3.1h8.7l.2 3.1h1.2v-4.3h-1.5zm-1.5 0h-6.1c.8-1 1.2-2.7 1.5-5.4.4-3.7.5-8.2.5-8.2h4.1v13.6zM38.4 6.7c-2.8 0-4.9 3.1-4.9 8.4 0 5.5 2.1 8.2 4.9 8.2 2.8 0 4.9-3.1 4.9-8.4 0-5.5-2.1-8.2-4.9-8.2zm0 15.4C36.6 22.1 35 20 35 15c0-4.9 1.5-7.1 3.4-7.1s3.4 2.1 3.4 7.1c0 4.8-1.5 7.1-3.4 7.1zM32 8.2V7h-6.8v16h1.5V8.2zM17.6 6.7c-2.8 0-4.9 3.1-4.9 8.4 0 5.5 2.1 8.2 4.9 8.2 2.8 0 4.9-3.1 4.9-8.4 0-5.5-2.2-8.2-4.9-8.2zm0 15.4c-1.9 0-3.4-2.1-3.4-7.1 0-4.9 1.5-7.1 3.4-7.1S21 10 21 15c0 4.8-1.5 7.1-3.4 7.1zM8.4 23H10V0H0v23h1.6V1.3h6.8z"/></svg>