<svg xmlns="http://www.w3.org/2000/svg" width="36" height="36" viewBox="0 0 36 36">
  <g fill="none" fill-rule="evenodd" transform="translate(-1 -1)">
    <path fill="#50AA01" d="M18.897,36.781 C9.01110298,36.781 0.997,28.766897 0.997,18.881 C0.997,8.99510298 9.01110298,0.981 18.897,0.981 C28.782897,0.981 36.797,8.99510298 36.797,18.881 C36.797,28.766897 28.782897,36.781 18.897,36.781 Z M18.897,2.822 C10.0262023,2.822 2.835,10.0132023 2.835,18.884 C2.835,27.7547977 10.0262023,34.946 18.897,34.946 C27.7677977,34.946 34.959,27.7547977 34.959,18.884 C34.9592652,14.6239195 33.2671407,10.53823 30.2549027,7.52580443 C27.2426646,4.51337883 23.1570805,2.82099999 18.897,2.821 L18.897,2.822 Z"/>
    <path fill="#222222" d="M25.242,15.371 L19.701,24.089 C19.701,24.097 19.691,24.102 19.688,24.11 L19.658,24.157 C19.652,24.166 19.643,24.17 19.637,24.178 C19.5798176,24.2891546 19.5052065,24.3904365 19.416,24.478 C18.9240826,24.9182343 18.1689568,24.8784673 17.726,24.389 L13.1,19.247 C12.7730253,18.9361547 12.6480267,18.4681823 12.7764528,18.0356964 C12.9048788,17.6032105 13.2650254,17.2793012 13.7086592,17.1972869 C14.1522931,17.1152727 14.60444,17.2890138 14.879,17.647 L18.444,21.609 L23.237,14.066 C23.6190863,13.5707979 24.31746,13.4521248 24.8416737,13.7933212 C25.3658874,14.1345177 25.5401143,14.8211428 25.242,15.371 Z"/>
  </g>
</svg>
