<svg xmlns="http://www.w3.org/2000/svg" width="36" height="36" viewBox="0 0 36 36">
  <g fill="none" fill-rule="evenodd" transform="translate(-1 -1)">
    <path fill="#6BAE01" d="M18.897,36.781 C11.6571258,36.781 5.13013627,32.419805 2.35955637,25.7310334 C-0.411023534,19.0422619 1.12042449,11.3431527 6.23978862,6.22378862 C11.3591527,1.10442449 19.0582619,-0.427023534 25.7470334,2.34355637 C32.435805,5.11413627 36.797,11.6411258 36.797,18.881 C36.797,28.766897 28.782897,36.781 18.897,36.781 Z M18.897,2.822 C10.0262023,2.822 2.835,10.0132023 2.835,18.884 C2.835,27.7547977 10.0262023,34.946 18.897,34.946 C27.7677977,34.946 34.959,27.7547977 34.959,18.884 C34.9592652,14.6239195 33.2671407,10.53823 30.2549027,7.52580443 C27.2426646,4.51337883 23.1570805,2.82099999 18.897,2.821 L18.897,2.822 Z"/>
    <path fill="#2B2B2B" d="M32.121,20.991 C32.0608171,21.1899848 31.9289855,21.3595844 31.751,21.467 L31.751,21.467 L31.741,21.473 C31.72,21.486 31.699,21.497 31.676,21.508 C31.3472141,21.6581748 30.9981569,21.7592531 30.64,21.808 C30.0790978,21.8886761 29.5110566,21.9077897 28.946,21.865 C28.946,21.865 29.146,21.557 29.678,20.93 C30.0108345,20.5462508 30.4193764,20.2354185 30.878,20.017 C30.893,20.009 30.908,20.003 30.923,19.996 L30.936,19.99 L30.936,19.99 C31.1221639,19.8976746 31.3359662,19.8777197 31.536,19.934 C31.7545432,19.9953571 31.9394151,20.1416744 32.0493334,20.340279 C32.1592518,20.5388837 32.1850618,20.7732342 32.121,20.991 L32.121,20.991 Z M28.829,17.946 L28.829,17.956 C28.821,17.978 28.812,17.998 28.802,18.019 C28.6504169,18.3207468 28.4545871,18.5981442 28.221,18.842 C27.8536638,19.2306625 27.4452783,19.5783601 27.003,19.879 C26.9728866,19.5154933 26.9615382,19.1506756 26.969,18.786 C26.9829222,18.3155705 27.0953415,17.8532888 27.299,17.429 C27.304,17.416 27.312,17.404 27.317,17.391 L27.324,17.377 L27.324,17.377 C27.4073042,17.1997622 27.5533954,17.0597284 27.734,16.984 C28.1429905,16.810267 28.6163149,16.9885892 28.809,17.389 C28.8870367,17.5645428 28.8938489,17.7635314 28.828,17.944 L28.828,17.944 L28.829,17.946 Z M27.469,21.978 C27.6851575,22.0411122 27.8673879,22.1875128 27.975598,22.3849914 C28.083808,22.5824701 28.1091326,22.8148484 28.046,23.031 C27.9859031,23.2300293 27.8540499,23.3996568 27.676,23.507 L27.676,23.507 L27.666,23.513 C27.644,23.526 27.623,23.537 27.6,23.548 C27.271519,23.6980541 26.9228095,23.7991293 26.565,23.848 C26.004095,23.9286442 25.4360573,23.9477577 24.871,23.905 C24.871,23.905 25.071,23.597 25.603,22.97 C25.9358938,22.5863141 26.3444216,22.2754925 26.803,22.057 C26.818,22.048 26.833,22.043 26.848,22.036 L26.861,22.03 L26.861,22.03 C27.0499558,21.936967 27.2669905,21.9184048 27.469,21.978 L27.469,21.978 Z M24.276,20.927 L13.603,20.937 C13.2322548,20.9370004 12.9315517,20.6367448 12.931,20.266 L12.931,17.432 C12.9318528,17.1481625 13.1125034,16.8960545 13.381,16.804 C13.6474409,16.6754424 13.8642349,16.4628649 13.998,16.199 C14.11,15.844 14.566,13.315 14.566,13.315 C14.6727626,13.0485037 14.9566162,12.8983278 15.237,12.96 C15.85,12.937 19.054,12.937 19.054,12.937 L19.054,12.937 C19.579,12.937 22.086,12.937 22.637,12.952 C22.9174467,12.8896534 23.2018103,13.0394521 23.309,13.306 C23.309,13.306 23.809,15.834 23.922,16.189 C24.0737187,16.4657705 24.3088762,16.6876304 24.594,16.823 L24.574,16.83 C24.7981358,16.941658 24.9406975,17.1696022 24.943,17.42 L24.943,20.254 C24.9435602,20.6235813 24.6455715,20.9242506 24.276,20.927 L24.276,20.927 Z M22.937,15.616 C22.918,15.448 22.842,14.471 22.749,14.061 C22.656,13.651 22.525,13.669 22.525,13.669 L18.904,13.669 L15.333,13.669 C15.333,13.669 15.202,13.65 15.109,14.061 C15.0404638,14.5767691 14.9997382,15.0958532 14.987,15.616 C14.968,15.784 14.95,15.971 15.248,15.952 C15.5,15.943 18.086,15.937 18.847,15.937 L19.071,15.937 C19.832,15.937 22.418,15.937 22.671,15.952 C22.972,15.97 22.953,15.783 22.937,15.616 Z M11.218,23.851 C10.8602084,23.8020446 10.5115111,23.7009729 10.183,23.551 C10.16,23.54 10.139,23.529 10.118,23.516 L10.108,23.51 L10.108,23.51 C9.92995014,23.4026568 9.79809685,23.2330293 9.738,23.034 C9.67486737,22.8178484 9.70019196,22.5854701 9.80840201,22.3879914 C9.91661207,22.1905128 10.0988425,22.0441122 10.315,21.981 C10.5150338,21.9247197 10.7288361,21.9446746 10.915,22.037 L10.915,22.037 L10.93,22.037 C10.945,22.045 10.96,22.05 10.975,22.058 C11.4335935,22.2764679 11.842126,22.587293 12.175,22.971 C12.702,23.598 12.907,23.906 12.907,23.906 C12.3436734,23.949063 11.7773316,23.9306208 11.218,23.851 Z M9.567,18.837 C9.33342446,18.5931347 9.13759598,18.3157391 8.986,18.014 C8.976,17.993 8.967,17.973 8.959,17.951 L8.959,17.941 L8.959,17.941 C8.89315108,17.7605314 8.8999633,17.5615428 8.978,17.386 C9.17068511,16.9855892 9.64400954,16.807267 10.053,16.981 C10.2336046,17.0567284 10.3796958,17.1967622 10.463,17.374 L10.463,17.374 L10.471,17.389 C10.477,17.402 10.484,17.413 10.489,17.426 C10.6926304,17.8502988 10.8050482,18.3125745 10.819,18.783 C10.8264618,19.1476756 10.8151134,19.5124933 10.785,19.876 C10.3426207,19.574733 9.93423138,19.2263614 9.567,18.837 L9.567,18.837 Z M7.143,21.807 C6.78484907,21.7582247 6.43579601,21.6571476 6.107,21.507 C6.085,21.496 6.064,21.485 6.043,21.472 L6.033,21.466 L6.033,21.466 C5.85495014,21.3586568 5.72309685,21.1890293 5.663,20.99 C5.53130749,20.5407784 5.78808263,20.0697258 6.237,19.937 C6.43703379,19.8807197 6.65083608,19.9006746 6.837,19.993 L6.837,19.993 L6.85,19.999 C6.865,20.007 6.88,20.012 6.895,20.02 C7.35362358,20.2384185 7.76216553,20.5492508 8.095,20.933 C8.622,21.56 8.827,21.868 8.827,21.868 C8.26525908,21.9100527 7.70061169,21.8909405 7.143,21.811 L7.143,21.807 Z M14.162,23.927 C14.0394447,23.9275666 13.9391872,23.8295371 13.937,23.707 L13.937,21.971 C13.937,21.8472882 14.0372882,21.747 14.161,21.747 L15.211,21.747 C15.3347118,21.747 15.435,21.8472882 15.435,21.971 L15.435,23.707 C15.435,23.7664085 15.4114001,23.8233838 15.3693919,23.8653919 C15.3273838,23.9074001 15.2704085,23.931 15.211,23.931 L14.161,23.931 L14.162,23.927 Z M22.642,23.949 C22.5825915,23.949 22.5256162,23.9254001 22.4836081,23.8833919 C22.4415999,23.8413838 22.418,23.7844085 22.418,23.725 L22.418,21.989 C22.418,21.9295915 22.4415999,21.8726162 22.4836081,21.8306081 C22.5256162,21.7885999 22.5825915,21.765 22.642,21.765 L23.692,21.765 C23.7514085,21.765 23.8083838,21.7885999 23.8503919,21.8306081 C23.8924001,21.8726162 23.916,21.9295915 23.916,21.989 L23.916,23.725 C23.916,23.7844085 23.8924001,23.8413838 23.8503919,23.8833919 C23.8083838,23.9254001 23.7514085,23.949 23.692,23.949 L22.642,23.949 L22.642,23.949 Z M18.929,24.937 C24.355,24.937 28.754,24.918 28.754,25.237 C28.754,25.556 24.354,26.66 18.929,26.66 C13.504,26.66 9.104,25.56 9.104,25.237 C9.104,24.914 13.503,24.937 18.929,24.937 Z"/>
  </g>
</svg>
